<?xml version="1.0" encoding="UTF-8"?>
<svg id="Layer_1" data-name="Layer 1" xmlns="http://www.w3.org/2000/svg" viewBox="0 0 659.48 659.48">
  <defs>
    <style>
      .cls-1, .cls-2 {
        fill: #231f20;
      }

      .cls-2 {
        stroke: #231f20;
        stroke-miterlimit: 10;
        stroke-width: .12px;
      }
    </style>
  </defs>
  <path class="cls-1" d="M169.67,70.99h113.82c1.9,0,3.17,1.96,2.39,3.7l-82.08,182.63c-1.41,3.14,2.29,6.09,5.03,4.01l242.97-183.72c5.68-4.3,12.61-6.62,19.74-6.62h104.03c3.31,0,4.59,4.32,1.8,6.11l-319.69,206.18c-9.67,6.24-11.01,19.86-2.74,27.86l18.86,18.24c14.93,14.44,21.15,35.68,16.38,55.9h0c-1.58,6.68-10.3,8.24-14.19,2.58-.05-.08-.11-.15-.16-.23-2.1-3.01-4.37-5.6-6.44-7.7-1.93-1.95-5.17.04-4.32,2.65h0c.89,2.72-2.61,4.68-4.46,2.5-5.21-6.12-12.45-14.26-20.97-22.82-21.07-21.14-47.91-45.54-56.69-53.46-1.53-1.38-3.92-1.05-5.02.69l-63.74,100.21c-1.96,3.07-5.35,4.94-8.99,4.94h-27.28c-2.19,0-3.78-2.08-3.21-4.19L166.46,73.44c.39-1.45,1.71-2.45,3.21-2.45Z"/>
  <path class="cls-1" d="M418.03,528.58H22.66c-1.83,0-3.31-1.48-3.32-3.3l-.39-72.32c0-1.84,1.48-3.34,3.33-3.34l305.07.27c10.86,0,21.3,4.21,29.14,11.73l63.85,61.25c2.16,2.07.69,5.72-2.3,5.72Z"/>
  <path class="cls-1" d="M430.25,469.87h48.93c10.34,0,20.39,3.46,28.53,9.83l131.55,102.85c2.52,1.97,1.08,6-2.11,5.94l-87.58-1.76c-11.33-.23-22.18-4.6-30.5-12.29l-95.29-88.03c-6.38-5.89-2.21-16.54,6.47-16.54Z"/>
  <path class="cls-2" d="M365.13,381.96c-2.34,8.86,9.04,14.68,14.84,7.58s12.55-15.74,18.69-24.36c12.06-16.93,22.94-34.82,30.06-47.05,2-3.44-2.17-7.13-5.35-4.74h0c-8.13,6.11-19.43-1.36-17-11.23l13.52-54.89c1.05-4.25-4.92-6.4-6.82-2.46l-18.53,38.31c-4.89,10.11-8.79,20.66-11.66,31.52l-17.76,67.32Z"/>
  <path class="cls-2" d="M366.93,378.75l35.45-43.4c14.12-17.28,31.41-31.7,50.95-42.47l72.15-39.78c3.62-2,7.24,2.62,4.44,5.66l-74.92,81.26c-14.08,15.27-30.77,27.91-49.28,37.32l-28.32,14.4c-8.22,4.18-16.31-5.85-10.47-13Z"/>
  <path class="cls-2" d="M374.5,392.69c-9.09,1.15-13.36-10.9-5.56-15.71s17.26-10.37,26.61-15.32c18.37-9.73,37.54-18.16,50.6-23.6,3.67-1.53,6.78,3.09,4,5.92h0c-7.13,7.25-1.21,19.44,8.9,18.33l56.19-6.17c4.35-.48,5.7,5.72,1.54,7.09l-40.42,13.32c-10.66,3.52-21.64,5.99-32.78,7.4l-69.07,8.74Z"/>
</svg>